HIERARCHY
ROOT hip
{
  OFFSET 3.76371 83.0095 -3.76586
  CHANNELS 6 Xposition Yposition Zposition Zrotation Xrotation Yrotation
  JOINT abdomen
  {
    OFFSET 0 20.6881 -0.73152
    CHANNELS 3 Zrotation Xrotation Yrotation
    JOINT chest
    {
      OFFSET 0 11.7043 -0.48768
      CHANNELS 3 Zrotation Xrotation Yrotation
      JOINT neck
      {
        OFFSET 0 22.1894 -2.19456
        CHANNELS 3 Zrotation Xrotation Yrotation
        JOINT head
        {
          OFFSET -0.24384 7.07133 1.2192
          CHANNELS 3 Zrotation Xrotation Yrotation
          JOINT leftEye
          {
            OFFSET 4.14528 8.04674 8.04672
            CHANNELS 3 Zrotation Xrotation Yrotation
            End Site
            {
              OFFSET 1 0 0
            }
          }
          JOINT rightEye
          {
            OFFSET -3.6576 8.04674 8.04672
            CHANNELS 3 Zrotation Xrotation Yrotation
            End Site
            {
              OFFSET 1 0 0
            }
          }
        }
      }
      JOINT rCollar
      {
        OFFSET -2.68224 19.2634 -4.8768
        CHANNELS 3 Zrotation Xrotation Yrotation
        JOINT rShldr
        {
          OFFSET -8.77824 -1.95073 1.46304
          CHANNELS 3 Zrotation Xrotation Yrotation
          JOINT rForeArm
          {
            OFFSET -28.1742 -1.7115 0.48768
            CHANNELS 3 Zrotation Xrotation Yrotation
            JOINT rHand
            {
              OFFSET -22.5879 0.773209 7.07136
              CHANNELS 3 Zrotation Xrotation Yrotation
              JOINT rThumb1
              {
                OFFSET -1.2192 -0.487915 3.41376
                CHANNELS 3 Zrotation Xrotation Yrotation
                JOINT rThumb2
                {
                  OFFSET -3.37035 -0.52449 3.41376
                  CHANNELS 3 Zrotation Xrotation Yrotation
                  End Site
                  {
                    OFFSET -1.78271 -1.18214 1.43049
                  }
                }
              }
              JOINT rIndex1
              {
                OFFSET -7.75947 0.938293 5.60832
                CHANNELS 3 Zrotation Xrotation Yrotation
                JOINT rIndex2
                {
                  OFFSET -2.54057 -0.884171 1.56538
                  CHANNELS 3 Zrotation Xrotation Yrotation
                  End Site
                  {
                    OFFSET -1.62519 -0.234802 1.16502
                  }
                }
              }
              JOINT rMid1
              {
                OFFSET -8.24714 1.18213 3.41376
                CHANNELS 3 Zrotation Xrotation Yrotation
                JOINT rMid2
                {
                  OFFSET -3.10165 -0.590103 1.0647
                  CHANNELS 3 Zrotation Xrotation Yrotation
                  End Site
                  {
                    OFFSET -2.48547 -0.328903 0.83742
                  }
                }
              }
              JOINT rRing1
              {
                OFFSET -8.82822 0.546677 1.51678
                CHANNELS 3 Zrotation Xrotation Yrotation
                JOINT rRing2
                {
                  OFFSET -2.60934 -0.819778 -0.0198488
                  CHANNELS 3 Zrotation Xrotation Yrotation
                  End Site
                  {
                    OFFSET -2.33842 -0.294052 0.168128
                  }
                }
              }
              JOINT rPinky1
              {
                OFFSET -8.27202 -0.0477905 -0.4584
                CHANNELS 3 Zrotation Xrotation Yrotation
                JOINT rPinky2
                {
                  OFFSET -1.82734 -0.647385 -0.700984
                  CHANNELS 3 Zrotation Xrotation Yrotation
                  End Site
                  {
                    OFFSET -1.69225 -0.51767 -0.607171
                  }
                }
              }
            }
          }
        }
      }
      JOINT lCollar
      {
        OFFSET 2.68224 19.2634 -4.8768
        CHANNELS 3 Zrotation Xrotation Yrotation
        JOINT lShldr
        {
          OFFSET 8.77824 -1.95073 1.46304
          CHANNELS 3 Zrotation Xrotation Yrotation
          JOINT lForeArm
          {
            OFFSET 28.1742 -1.7115 0.48768
            CHANNELS 3 Zrotation Xrotation Yrotation
            JOINT lHand
            {
              OFFSET 22.5879 0.773209 7.07136
              CHANNELS 3 Zrotation Xrotation Yrotation
              JOINT lThumb1
              {
                OFFSET 1.2192 -0.487915 3.41376
                CHANNELS 3 Zrotation Xrotation Yrotation
                JOINT lThumb2
                {
                  OFFSET 3.37035 -0.52449 3.41376
                  CHANNELS 3 Zrotation Xrotation Yrotation
                  End Site
                  {
                    OFFSET 1.78271 -1.18214 1.43049
                  }
                }
              }
              JOINT lIndex1
              {
                OFFSET 7.75947 0.938293 5.60832
                CHANNELS 3 Zrotation Xrotation Yrotation
                JOINT lIndex2
                {
                  OFFSET 2.54057 -0.884171 1.56538
                  CHANNELS 3 Zrotation Xrotation Yrotation
                  End Site
                  {
                    OFFSET 1.62519 -0.234802 1.16502
                  }
                }
              }
              JOINT lMid1
              {
                OFFSET 8.24714 1.18213 3.41376
                CHANNELS 3 Zrotation Xrotation Yrotation
                JOINT lMid2
                {
                  OFFSET 3.10165 -0.590103 1.0647
                  CHANNELS 3 Zrotation Xrotation Yrotation
                  End Site
                  {
                    OFFSET 2.48547 -0.328903 0.83742
                  }
                }
              }
              JOINT lRing1
              {
                OFFSET 8.82822 0.546677 1.51678
                CHANNELS 3 Zrotation Xrotation Yrotation
                JOINT lRing2
                {
                  OFFSET 2.60934 -0.819778 -0.0198488
                  CHANNELS 3 Zrotation Xrotation Yrotation
                  End Site
                  {
                    OFFSET 2.33842 -0.294052 0.168128
                  }
                }
              }
              JOINT lPinky1
              {
                OFFSET 8.27202 -0.0477905 -0.4584
                CHANNELS 3 Zrotation Xrotation Yrotation
                JOINT lPinky2
                {
                  OFFSET 1.82734 -0.647385 -0.700984
                  CHANNELS 3 Zrotation Xrotation Yrotation
                  End Site
                  {
                    OFFSET 1.69225 -0.51767 -0.607171
                  }
                }
              }
            }
          }
        }
      }
    }
  }
  JOINT rButtock
  {
    OFFSET -8.77824 4.35084 1.2192
    CHANNELS 3 Zrotation Xrotation Yrotation
    JOINT rThigh
    {
      OFFSET 0 -1.70687 -2.19456
      CHANNELS 3 Zrotation Xrotation Yrotation
      JOINT rShin
      {
        OFFSET 0 -36.8199 0.73152
        CHANNELS 3 Zrotation Xrotation Yrotation
        JOINT rFoot
        {
          OFFSET 0.73152 -45.1104 -5.12064
          CHANNELS 3 Zrotation Xrotation Yrotation
          End Site
          {
            OFFSET -1.1221 -3.69964 12.103
          }
        }
      }
    }
  }
  JOINT lButtock
  {
    OFFSET 8.77824 4.35084 1.2192
    CHANNELS 3 Zrotation Xrotation Yrotation
    JOINT lThigh
    {
      OFFSET 0 -1.70687 -2.19456
      CHANNELS 3 Zrotation Xrotation Yrotation
      JOINT lShin
      {
        OFFSET 0 -36.8199 0.73152
        CHANNELS 3 Zrotation Xrotation Yrotation
        JOINT lFoot
        {
          OFFSET -0.73152 -45.1104 -5.12064
          CHANNELS 3 Zrotation Xrotation Yrotation
          End Site
          {
            OFFSET 1.1221 -3.69964 12.103
          }
        }
      }
    }
  }
}
MOTION
Frames:	5
Frame Time:	0.00833333
-169.149 85.2982 9.76342 -0.748217 0.000154498 0.0136293 0.984355 -0.00436094 0.0272514 0.271545 -0.00455348 0.0470445 -5.62433e-015 -1.59028e-015 -1.631e-023 -1.66637e-014 -6.36111e-015 5.12492e-017 -0 0 0 -0 0 0 -2.73453e-015 3.12542e-017 1.98785e-016 -5.69051e-014 4.03781e-016 5.96354e-016 -1.00863e-012 3.26206e-013 1.59028e-014 -1.16152e-011 -1.89591e-013 -4.45278e-014 -2.73903e-011 2.99022e-013 -3.49861e-014 -4.73088e-011 5.1843e-013 -6.04305e-014 -2.73854e-011 2.99767e-013 -3.81667e-014 7.73091 5.47488 0.417314 -2.73896e-011 2.99171e-013 -3.18055e-014 2.90554 0.965183 0.102902 -2.73834e-011 2.99668e-013 -3.10104e-014 10.2786 0.731801 0.0259123 -2.73943e-011 3.01358e-013 -2.22639e-014 2.22167 -0.733487 -0.20892 -2.73224e-015 3.26131e-017 -1.98785e-016 -6.12064e-014 5.09386e-016 -9.93923e-016 -1.01703e-012 -2.82473e-013 0 -1.15985e-011 4.10018e-013 0 -2.73656e-011 2.79127e-013 -2.22639e-014 -4.72599e-011 4.83444e-013 -3.97569e-014 -2.73711e-011 2.80286e-013 -1.90833e-014 -7.73091 5.47488 -0.417314 -2.73659e-011 2.78795e-013 -2.8625e-014 -2.90554 0.965183 -0.102902 -2.73679e-011 2.79094e-013 -2.8625e-014 -10.2786 0.731801 -0.0259123 -2.73641e-011 2.79491e-013 -4.13472e-014 -2.22167 -0.733487 0.20892 -2.03217e-016 0 -3.88251e-019 1.24883 -5.45297 -0.109164 6.91505e-005 4.32233 0.0238794 -0.510685 1.12951 0.081236 2.03217e-016 0 3.88251e-019 0.24968 -1.91924 0.012923 0.00928358 -2.07855 0.0766837 0.496244 3.99654 -0.137943 
-165.659 82.6148 2.777 -2.68509 11.5621 -28.2387 2.10141 -5.93808 2.0781 0.204642 3.05076 0.589359 4.02212 2.54446 4.4915 -5.1053 0.336773 8.9109 -0 0 0 -0 0 0 2.72674e-015 4.46345e-014 3.23429e-014 22.0717 2.66954 0.593514 -5.37029 -2.72343 8.05746 0.0088089 -2.08523 -0.292363 -5.12459e-010 -1.18036e-009 7.6883e-011 -8.89137e-010 -2.04477e-009 1.32369e-010 -5.12454e-010 -1.18035e-009 7.68773e-011 7.73091 5.47488 0.417314 -5.12458e-010 -1.18036e-009 7.68824e-011 2.90554 0.965183 0.102902 -5.12452e-010 -1.18036e-009 7.68836e-011 10.2786 0.731801 0.0259123 -5.12464e-010 -1.18035e-009 7.68931e-011 2.22167 -0.733487 -0.20892 2.71825e-015 4.46381e-014 3.20474e-014 -20.1172 11.6059 -5.06804 4.25553 -1.9404 -6.63973 -0.0307356 -3.92044 0.546443 -2.58007e-010 -5.96576e-010 2.63296e-010 -4.45818e-010 -1.0376e-009 4.51584e-010 -2.58013e-010 -5.96575e-010 2.63301e-010 -7.73091 5.47488 -0.417314 -2.58007e-010 -5.96577e-010 2.63292e-010 -2.90554 0.965183 -0.102902 -2.58012e-010 -5.96577e-010 2.63292e-010 -10.2786 0.731801 -0.0259123 -2.58005e-010 -5.96577e-010 2.63281e-010 -2.22167 -0.733487 0.20892 -2.03217e-016 0 -3.88251e-019 -0.626141 -9.64603 -2.62973 0.0176691 7.79396 0.115893 -1.15968 -3.61398 -7.94019 2.03217e-016 0 3.88251e-019 2.08477 -9.39904 0.4829 -0.0412998 6.58277 -0.128657 1.03055 -1.97192 4.49062 
-165.6 82.6301 2.79251 5.60914 14.3587 -59.7873 3.77839 -12.159 4.32312 0.0713699 6.27616 1.16713 7.84106 5.17416 9.26913 -10.6115 0.673972 18.3316 -0 0 0 -0 0 0 7.58788e-015 9.00727e-014 6.84565e-014 45.3428 5.47701 1.22981 -10.2275 -5.42665 16.6397 -0.00512554 -4.30255 -0.604566 -1.04244e-009 -2.48451e-009 1.34464e-010 -1.80887e-009 -4.30391e-009 2.31282e-010 -1.04244e-009 -2.48451e-009 1.34456e-010 7.73091 5.47488 0.417314 -1.04244e-009 -2.48451e-009 1.34459e-010 2.90554 0.965183 0.102902 -1.04243e-009 -2.48451e-009 1.34461e-010 10.2786 0.731801 0.0259123 -1.04245e-009 -2.48451e-009 1.34471e-010 2.22167 -0.733487 -0.20892 7.56991e-015 9.00788e-014 6.82732e-014 -38.9821 23.5749 -11.164 8.28283 -3.91466 -13.7054 0.019394 -8.1197 1.14061 -5.06313e-010 -1.2671e-009 5.811e-010 -8.74989e-010 -2.20372e-009 9.97039e-010 -5.06318e-010 -1.2671e-009 5.81108e-010 -7.73091 5.47488 -0.417314 -5.06312e-010 -1.2671e-009 5.811e-010 -2.90554 0.965183 -0.102902 -5.0632e-010 -1.2671e-009 5.81099e-010 -10.2786 0.731801 -0.0259123 -5.06309e-010 -1.2671e-009 5.8109e-010 -2.22167 -0.733487 0.20892 -2.03217e-016 0 -3.88251e-019 -3.01557 -14.0333 -5.46917 0.0242376 11.4945 0.215997 -3.26451 -8.31889 -16.4831 2.03217e-016 0 3.88251e-019 4.18602 -17.2937 1.01849 -0.0253604 15.7429 -0.357502 2.64909 -8.18954 9.47869 
-165.537 82.6344 2.8278 14.0122 4.49782 -84.4692 5.66112 -17.7113 6.45343 -0.104595 9.15792 1.69307 10.8733 7.44531 13.5778 -15.6176 0.913347 26.7359 -0 0 0 -0 0 0 1.36493e-014 1.33841e-013 9.66311e-014 66.0478 8.00517 1.79612 -13.8722 -7.52535 24.3682 -0.0377379 -6.25504 -0.881757 -1.4826e-009 -3.54166e-009 2.30719e-010 -2.57279e-009 -6.13534e-009 3.97227e-010 -1.48259e-009 -3.54166e-009 2.30708e-010 7.73091 5.47488 0.417314 -1.48259e-009 -3.54166e-009 2.30711e-010 2.90554 0.965183 0.102902 -1.48259e-009 -3.54166e-009 2.30713e-010 10.2786 0.731801 0.0259123 -1.4826e-009 -3.54166e-009 2.30724e-010 2.22167 -0.733487 -0.20892 1.36192e-014 1.33849e-013 9.65398e-014 -53.2346 33.6163 -17.976 11.4424 -5.50915 -20.004 0.136192 -11.757 1.67055 -7.19291e-010 -1.79029e-009 7.89932e-010 -1.24293e-009 -3.11377e-009 1.35483e-009 -7.19296e-010 -1.79028e-009 7.89942e-010 -7.73091 5.47488 -0.417314 -7.1929e-010 -1.79029e-009 7.89934e-010 -2.90554 0.965183 -0.102902 -7.193e-010 -1.79029e-009 7.89933e-010 -10.2786 0.731801 -0.0259123 -7.19286e-010 -1.79029e-009 7.89926e-010 -2.22167 -0.733487 0.20892 -2.03217e-016 0 -3.88251e-019 -5.53088 -17.8997 -7.94721 0.0183374 14.737 0.306941 -6.38786 -12.0521 -24.5098 2.03217e-016 0 3.88251e-019 6.15457 -24.3518 1.5405 0.0567347 23.9044 -0.587049 5.0244 -13.5209 14.1387 
-165.501 82.6071 2.86961 17.0977 -8.01995 -97.4448 7.11317 -21.6811 8.04246 -0.263558 11.1838 2.07152 12.7727 8.99788 16.6171 -19.1544 1.00614 32.5957 -0 0 0 -0 0 0 2.27113e-014 1.73435e-013 1.04958e-013 80.4571 9.83844 2.1727 -16.0481 -8.73203 29.7744 -0.0703529 -7.5461 -1.06677 -1.69818e-009 -3.98133e-009 4.23659e-010 -2.94719e-009 -6.89747e-009 7.30749e-010 -1.69817e-009 -3.98133e-009 4.23647e-010 7.73091 5.47488 0.417314 -1.69817e-009 -3.98133e-009 4.2365e-010 2.90554 0.965183 0.102902 -1.69817e-009 -3.98133e-009 4.23651e-010 10.2786 0.731801 0.0259123 -1.69818e-009 -3.98132e-009 4.23663e-010 2.22167 -0.733487 -0.20892 2.26627e-014 1.73444e-013 1.04909e-013 -61.3542 39.9824 -23.9144 13.3734 -6.45979 -24.3017 0.246369 -13.9939 2.00719 -8.43951e-010 -1.94513e-009 7.26334e-010 -1.45781e-009 -3.38364e-009 1.24347e-009 -8.43956e-010 -1.94513e-009 7.26343e-010 -7.73091 5.47488 -0.417314 -8.43949e-010 -1.94513e-009 7.26337e-010 -2.90554 0.965183 -0.102902 -8.43961e-010 -1.94513e-009 7.26336e-010 -10.2786 0.731801 -0.0259123 -8.43945e-010 -1.94513e-009 7.26331e-010 -2.22167 -0.733487 0.20892 -2.03217e-016 0 -3.88251e-019 -7.46833 -20.6009 -9.26683 0.00689492 16.8349 0.368664 -9.39591 -14.307 -30.7423 2.03217e-016 0 3.88251e-019 7.49142 -29.3253 1.91759 0.159076 29.5701 -0.770439 7.20372 -17.0288 17.5516 
